<svg width="64" height="64" viewBox="0 0 64 64" fill="none" xmlns="http://www.w3.org/2000/svg">
  <!-- Simplified robot + chat bubble icon for HA panel -->
  <defs>
    <linearGradient id="g" x1="0" y1="0" x2="64" y2="64">
      <stop offset="0" stop-color="#03a9f4"/>
      <stop offset="1" stop-color="#0288d1"/>
    </linearGradient>
  </defs>
  <!-- Antenna -->
  <line x1="32" y1="10" x2="32" y2="16" stroke="url(#g)" stroke-width="2.5" stroke-linecap="round"/>
  <circle cx="32" cy="8" r="2.5" fill="url(#g)"/>
  <!-- Head -->
  <path d="M18 18 Q18 14 22 14 L42 14 Q46 14 46 18 L46 36 Q46 40 42 40 L22 40 Q18 40 18 36 Z" 
        fill="none" stroke="url(#g)" stroke-width="2.5"/>
  <!-- Eyes -->
  <rect x="24" y="22" width="6" height="4" rx="1.5" fill="url(#g)"/>
  <rect x="34" y="22" width="6" height="4" rx="1.5" fill="url(#g)"/>
  <!-- Smile -->
  <path d="M25 30 Q32 34 39 30" fill="none" stroke="url(#g)" stroke-width="2" stroke-linecap="round"/>
  <!-- Chat bubble -->
  <path d="M42 38 Q42 35 45 35 L56 35 Q59 35 59 38 L59 48 Q59 51 56 51 L50 51 L47 54 L47 51 L45 51 Q42 51 42 48 Z"
        fill="#0d1117" stroke="url(#g)" stroke-width="2"/>
  <circle cx="48" cy="43" r="1.5" fill="url(#g)"/>
  <circle cx="53" cy="43" r="1.5" fill="url(#g)"/>
</svg>